<svg id="svg" xmlns="http://www.w3.org/2000/svg" xmlns:xlink="http://www.w3.org/1999/xlink" width="400" height="400" viewBox="0, 0, 400,400"><g id="svgg"><path id="path0" d="M112.800 162.400 L 112.800 237.200 137.600 237.200 L 162.400 237.200 162.400 162.400 L 162.400 87.600 137.600 87.600 L 112.800 87.600 112.800 162.400 M147.000 94.359 C 149.008 95.532,150.000 97.397,150.000 100.000 C 150.000 102.603,149.008 104.468,147.000 105.641 C 145.382 106.586,130.228 106.747,128.480 105.838 C 123.599 103.298,123.611 96.880,128.503 94.175 C 130.051 93.318,145.481 93.472,147.000 94.359 M140.518 119.263 C 141.663 119.876,142.177 120.414,143.169 122.042 C 144.475 124.184,144.475 213.416,143.169 215.558 C 140.511 219.918,134.558 220.103,131.998 215.904 C 130.749 213.856,130.749 123.744,131.998 121.696 C 133.563 119.130,137.936 117.881,140.518 119.263 M285.200 121.577 C 284.195 122.130,280.947 123.452,276.800 124.996 C 275.810 125.364,274.460 125.901,273.800 126.189 C 273.140 126.477,271.790 127.017,270.800 127.389 C 269.810 127.761,268.460 128.308,267.800 128.604 C 267.140 128.900,261.740 131.063,255.800 133.411 C 249.860 135.758,244.595 137.841,244.100 138.039 C 242.130 138.829,241.200 139.351,241.200 139.667 C 241.200 140.384,249.692 161.178,250.132 161.537 C 250.519 161.853,269.062 154.761,278.549 150.668 C 279.401 150.301,280.258 150.000,280.454 150.000 C 280.650 150.000,281.123 149.841,281.505 149.647 C 282.277 149.254,284.663 148.269,287.300 147.254 C 287.795 147.063,288.695 146.703,289.300 146.454 C 289.905 146.204,290.895 145.799,291.500 145.553 C 292.105 145.308,292.913 144.948,293.295 144.753 C 293.677 144.559,294.240 144.400,294.546 144.400 C 295.466 144.400,296.094 143.356,295.670 142.531 C 295.254 141.724,294.454 139.840,294.000 138.600 C 293.370 136.880,292.378 134.473,291.240 131.904 C 290.778 130.862,290.400 129.824,290.400 129.599 C 290.400 129.374,290.235 128.877,290.033 128.495 C 289.831 128.113,289.079 126.315,288.360 124.500 C 287.055 121.201,286.618 120.797,285.200 121.577 M175.200 143.800 L 175.200 156.000 200.000 156.000 L 224.800 156.000 224.800 143.800 L 224.800 131.600 200.000 131.600 L 175.200 131.600 175.200 143.800 M50.177 250.516 C 50.067 250.803,50.027 253.550,50.088 256.619 L 50.200 262.200 75.110 262.303 L 100.021 262.406 99.910 256.303 L 99.800 250.200 75.089 250.097 C 55.052 250.013,50.339 250.093,50.177 250.516 M112.800 256.240 L 112.800 262.400 137.610 262.400 L 162.421 262.400 162.310 256.300 L 162.200 250.200 137.500 250.140 L 112.800 250.080 112.800 256.240 M112.800 293.800 L 112.800 312.400 137.600 312.400 L 162.400 312.400 162.400 293.800 L 162.400 275.200 137.600 275.200 L 112.800 275.200 112.800 293.800 M175.200 300.000 L 175.200 312.400 200.000 312.400 L 224.800 312.400 224.800 300.000 L 224.800 287.600 200.000 287.600 L 175.200 287.600 175.200 300.000 " stroke="none" fill="#f2d579" fill-rule="evenodd"></path><path id="path1" d="M50.185 88.100 C 50.080 88.375,50.041 122.080,50.097 163.000 L 50.200 237.400 75.000 237.400 L 99.800 237.400 99.901 162.500 L 100.002 87.600 75.188 87.600 C 55.706 87.600,50.334 87.707,50.185 88.100 M84.431 94.510 C 88.732 97.408,88.688 103.138,84.346 105.581 C 82.014 106.894,67.547 106.824,65.569 105.490 C 61.087 102.470,61.355 96.801,66.103 94.175 C 67.939 93.159,82.831 93.431,84.431 94.510 M78.404 119.700 C 81.574 121.857,81.292 117.114,81.292 168.297 C 81.292 193.368,81.161 214.312,81.000 214.840 C 79.569 219.547,72.236 220.231,69.598 215.904 C 68.349 213.856,68.349 123.744,69.598 121.696 C 71.359 118.808,75.661 117.833,78.404 119.700 M50.000 293.800 L 50.000 312.400 75.000 312.400 L 100.000 312.400 100.000 293.800 L 100.000 275.200 75.000 275.200 L 50.000 275.200 50.000 293.800 " stroke="none" fill="#f93b53" fill-rule="evenodd"></path><path id="path2" d="M175.200 221.800 L 175.200 274.800 200.000 274.800 L 224.800 274.800 224.800 221.800 L 224.800 168.800 200.000 168.800 L 175.200 168.800 175.200 221.800 M203.338 182.087 C 204.845 183.146,205.241 183.551,205.900 184.710 C 206.706 186.128,206.620 257.435,205.810 259.059 C 203.441 263.808,196.579 263.849,194.224 259.129 C 193.113 256.900,193.296 186.449,194.419 184.454 C 196.203 181.286,200.555 180.131,203.338 182.087 " stroke="none" fill="#53d18b" fill-rule="evenodd"></path><path id="path3" d="M284.800 121.392 C 284.069 121.816,283.982 121.975,284.476 121.986 C 284.848 121.994,285.264 121.820,285.400 121.600 C 285.723 121.077,287.076 121.084,287.337 121.610 C 287.449 121.836,287.494 121.791,287.439 121.510 C 287.293 120.777,285.964 120.717,284.800 121.392 M271.800 126.539 C 266.740 128.576,262.259 130.372,261.843 130.530 C 261.426 130.689,261.177 130.910,261.288 131.022 C 261.465 131.198,263.533 130.424,267.800 128.583 C 268.460 128.299,269.810 127.761,270.800 127.389 C 271.790 127.016,273.320 126.396,274.200 126.010 C 275.080 125.624,276.520 125.067,277.400 124.772 C 278.280 124.478,279.171 124.093,279.380 123.918 C 279.589 123.743,280.073 123.600,280.456 123.600 C 280.839 123.600,281.264 123.420,281.400 123.200 C 281.811 122.536,281.341 122.699,271.800 126.539 M289.137 126.324 C 289.540 127.467,289.989 128.522,290.135 128.668 C 290.281 128.814,290.400 129.175,290.400 129.471 C 290.400 129.968,291.576 132.875,292.433 134.495 C 292.635 134.877,292.800 135.451,292.800 135.771 C 292.800 136.091,292.999 136.476,293.243 136.626 C 293.784 136.961,293.430 135.690,292.351 133.425 C 291.938 132.559,291.600 131.702,291.600 131.521 C 291.600 131.339,291.261 130.428,290.847 129.496 C 290.433 128.563,289.865 127.170,289.583 126.400 C 289.302 125.630,288.922 124.830,288.738 124.623 C 288.555 124.415,288.734 125.180,289.137 126.324 M174.983 131.701 C 174.875 131.980,174.836 137.607,174.894 144.204 L 175.000 156.200 200.000 156.200 L 225.000 156.200 225.000 143.800 L 225.000 131.400 200.089 131.297 C 180.259 131.215,175.137 131.297,174.983 131.701 M252.305 134.310 C 248.183 135.978,244.890 137.423,244.987 137.520 C 245.148 137.682,260.384 131.737,260.767 131.363 C 261.357 130.786,258.865 131.654,252.305 134.310 M224.800 143.800 L 224.800 156.000 200.000 156.000 L 175.200 156.000 175.200 143.800 L 175.200 131.600 200.000 131.600 L 224.800 131.600 224.800 143.800 M293.600 137.605 C 293.600 137.828,293.759 138.323,293.953 138.705 C 294.400 139.583,295.054 141.174,295.373 142.157 C 295.508 142.574,295.713 142.821,295.827 142.706 C 296.038 142.495,294.048 137.200,293.757 137.200 C 293.671 137.200,293.600 137.382,293.600 137.605 M241.182 139.022 C 240.666 139.644,248.525 160.549,249.792 161.923 C 250.183 162.347,252.759 161.452,263.530 157.150 C 270.822 154.237,276.722 151.789,276.642 151.709 C 276.562 151.629,270.670 153.894,263.548 156.744 C 254.722 160.274,250.450 161.800,250.129 161.537 C 248.700 160.363,241.045 139.602,241.824 139.012 C 242.251 138.689,242.397 138.420,242.149 138.413 C 241.901 138.406,241.466 138.680,241.182 139.022 M293.200 144.795 C 292.870 144.986,292.259 145.250,291.843 145.381 C 291.426 145.512,291.185 145.718,291.307 145.840 C 291.429 145.962,292.309 145.703,293.264 145.264 C 294.219 144.826,294.730 144.463,294.400 144.457 C 294.070 144.452,293.530 144.603,293.200 144.795 M278.453 150.653 C 277.713 150.976,277.192 151.325,277.295 151.428 C 277.399 151.532,278.275 151.266,279.242 150.837 C 280.209 150.408,280.730 150.058,280.400 150.061 C 280.070 150.063,279.194 150.330,278.453 150.653 M299.176 156.379 C 298.613 156.550,297.533 156.962,296.776 157.296 C 296.019 157.629,290.090 160.014,283.600 162.597 C 277.110 165.180,271.037 167.632,270.104 168.046 C 269.172 168.461,268.173 168.800,267.884 168.800 C 267.596 168.800,267.189 168.952,266.980 169.138 C 266.771 169.323,265.520 169.884,264.200 170.384 C 262.880 170.883,261.037 171.631,260.104 172.046 C 259.172 172.461,258.182 172.813,257.904 172.829 C 256.948 172.885,255.000 174.305,255.131 174.852 C 255.203 175.153,255.499 175.940,255.788 176.600 C 256.077 177.260,258.160 182.480,260.415 188.200 C 262.671 193.920,264.909 199.500,265.388 200.600 C 265.866 201.700,266.491 203.230,266.776 204.000 C 267.062 204.770,267.633 206.163,268.047 207.096 C 268.461 208.028,268.800 208.976,268.800 209.201 C 268.800 209.426,268.959 209.923,269.153 210.305 C 269.484 210.955,269.821 211.753,270.800 214.200 C 271.020 214.750,271.380 215.650,271.600 216.200 C 271.820 216.750,272.156 217.605,272.346 218.100 C 272.877 219.478,273.440 220.818,274.360 222.896 C 274.822 223.938,275.200 224.976,275.200 225.201 C 275.200 225.426,275.380 225.923,275.600 226.305 C 275.820 226.687,281.406 240.590,288.014 257.200 C 294.621 273.810,300.177 287.760,300.360 288.200 C 300.543 288.640,300.921 289.540,301.200 290.200 C 301.479 290.860,301.839 291.760,302.000 292.200 C 302.161 292.640,302.497 293.495,302.746 294.100 C 302.996 294.705,303.404 295.695,303.654 296.300 C 303.903 296.905,304.239 297.760,304.400 298.200 C 304.561 298.640,304.897 299.495,305.146 300.100 C 305.396 300.705,305.801 301.695,306.047 302.300 C 306.292 302.905,306.652 303.713,306.847 304.095 C 307.041 304.477,307.206 305.017,307.213 305.295 C 307.271 307.612,311.382 306.520,324.296 300.757 C 325.228 300.341,326.176 300.000,326.401 300.000 C 326.626 300.000,327.123 299.841,327.505 299.647 C 327.887 299.452,328.650 299.116,329.200 298.900 C 329.750 298.684,330.650 298.327,331.200 298.107 C 331.750 297.887,332.650 297.527,333.200 297.307 C 333.750 297.087,334.740 296.679,335.400 296.400 C 336.060 296.121,336.960 295.755,337.400 295.586 C 337.840 295.418,339.053 294.902,340.096 294.440 C 341.138 293.978,342.227 293.600,342.516 293.600 C 342.804 293.600,343.211 293.449,343.420 293.264 C 343.629 293.080,346.025 292.052,348.745 290.980 C 354.553 288.690,354.365 288.961,352.794 285.175 C 351.448 281.933,351.112 281.113,350.507 279.600 C 349.728 277.652,349.102 276.191,348.753 275.505 C 348.559 275.123,348.400 274.626,348.400 274.401 C 348.400 274.007,347.129 270.945,346.367 269.505 C 346.165 269.123,346.000 268.626,346.000 268.401 C 346.000 268.007,344.729 264.945,343.967 263.505 C 343.765 263.123,343.600 262.626,343.600 262.401 C 343.600 262.176,343.249 261.228,342.820 260.296 C 342.391 259.363,341.695 257.700,341.272 256.600 C 338.825 250.231,317.939 198.083,317.604 197.505 C 317.382 197.123,317.200 196.626,317.200 196.401 C 317.200 196.176,316.822 195.138,316.360 194.096 C 315.898 193.053,315.358 191.795,315.160 191.300 C 314.962 190.805,314.620 189.950,314.400 189.400 C 314.180 188.850,313.820 187.950,313.600 187.400 C 313.380 186.850,312.996 185.905,312.746 185.300 C 312.497 184.695,312.116 183.750,311.900 183.200 C 311.684 182.650,311.348 181.887,311.153 181.505 C 310.959 181.123,310.800 180.626,310.800 180.401 C 310.800 180.176,310.422 179.138,309.960 178.096 C 308.835 175.556,308.967 175.879,304.742 165.300 C 302.699 160.185,300.842 156.015,300.614 156.034 C 300.386 156.053,299.739 156.209,299.176 156.379 M286.954 176.207 C 288.556 176.876,290.800 179.010,290.800 179.865 C 290.800 180.165,290.959 180.723,291.153 181.105 C 291.472 181.731,291.732 182.332,292.839 185.000 C 295.521 191.462,316.356 244.104,316.553 244.915 C 317.683 249.583,311.947 254.058,307.680 251.838 C 305.584 250.747,304.738 249.229,300.953 239.761 C 298.850 234.503,296.895 229.660,296.609 229.000 C 296.322 228.340,295.783 226.990,295.411 226.000 C 295.039 225.010,294.501 223.660,294.215 223.000 C 293.930 222.340,291.226 215.590,288.206 208.000 C 285.187 200.410,282.532 193.750,282.305 193.200 C 282.078 192.650,281.737 191.795,281.546 191.300 C 280.815 189.400,280.450 188.535,279.563 186.600 C 276.608 180.154,281.142 173.778,286.954 176.207 M112.562 256.200 C 112.562 259.720,112.624 261.106,112.698 259.281 C 112.772 257.456,112.772 254.576,112.697 252.881 C 112.622 251.186,112.561 252.680,112.562 256.200 M123.100 250.289 C 123.815 250.378,124.985 250.378,125.700 250.289 C 126.415 250.201,125.830 250.128,124.400 250.128 C 122.970 250.128,122.385 250.201,123.100 250.289 M138.700 250.289 C 139.415 250.378,140.585 250.378,141.300 250.289 C 142.015 250.201,141.430 250.128,140.000 250.128 C 138.570 250.128,137.985 250.201,138.700 250.289 M154.300 250.289 C 155.015 250.378,156.185 250.378,156.900 250.289 C 157.615 250.201,157.030 250.128,155.600 250.128 C 154.170 250.128,153.585 250.201,154.300 250.289 M162.397 254.118 L 162.595 258.200 162.713 254.436 C 162.778 252.366,162.690 250.529,162.516 250.354 C 162.342 250.179,162.289 251.873,162.397 254.118 M50.343 262.503 C 50.510 262.670,61.706 262.760,75.223 262.703 L 99.800 262.600 74.920 262.400 C 61.236 262.290,50.176 262.336,50.343 262.503 M118.300 262.697 C 119.895 262.773,122.505 262.773,124.100 262.697 C 125.695 262.621,124.390 262.559,121.200 262.559 C 118.010 262.559,116.705 262.621,118.300 262.697 M133.900 262.697 C 135.495 262.773,138.105 262.773,139.700 262.697 C 141.295 262.621,139.990 262.559,136.800 262.559 C 133.610 262.559,132.305 262.621,133.900 262.697 M149.500 262.697 C 151.095 262.773,153.705 262.773,155.300 262.697 C 156.895 262.621,155.590 262.559,152.400 262.559 C 149.210 262.559,147.905 262.621,149.500 262.697 M199.300 262.676 C 199.685 262.776,200.315 262.776,200.700 262.676 C 201.085 262.575,200.770 262.493,200.000 262.493 C 199.230 262.493,198.915 262.575,199.300 262.676 M174.991 300.100 L 175.000 312.600 180.501 312.618 L 186.001 312.635 180.606 312.506 L 175.211 312.377 175.097 299.989 L 174.983 287.600 174.991 300.100 M224.894 299.877 L 224.800 312.354 223.100 312.507 L 221.400 312.660 223.113 312.730 C 225.354 312.822,225.229 313.645,225.100 299.596 L 224.988 287.400 224.894 299.877 M193.100 312.697 C 194.695 312.773,197.305 312.773,198.900 312.697 C 200.495 312.621,199.190 312.559,196.000 312.559 C 192.810 312.559,191.505 312.621,193.100 312.697 M208.700 312.697 C 210.295 312.773,212.905 312.773,214.500 312.697 C 216.095 312.621,214.790 312.559,211.600 312.559 C 208.410 312.559,207.105 312.621,208.700 312.697 " stroke="none" fill="#6b6b93" fill-rule="evenodd"></path><path id="path4" d="M11.784 1.832 C 9.661 3.267,2.183 10.885,1.387 12.425 C 0.683 13.786,0.735 15.651,1.483 15.897 C 2.599 16.263,16.263 2.599,15.897 1.483 C 15.588 0.540,13.424 0.724,11.784 1.832 M27.332 1.856 C 25.102 3.302,2.276 26.278,1.432 27.927 C 0.693 29.368,0.716 31.245,1.475 31.494 C 2.399 31.797,28.791 6.040,30.962 2.718 C 32.346 0.599,30.094 0.065,27.332 1.856 M42.921 1.863 C 40.696 3.306,2.264 41.872,1.449 43.480 C 0.611 45.133,0.586 47.200,1.403 47.200 C 3.128 47.200,47.200 3.134,47.200 1.409 C 47.200 0.410,44.764 0.668,42.921 1.863 M58.517 1.865 C 56.278 3.317,2.256 57.476,1.446 59.080 C 0.607 60.742,0.587 62.800,1.409 62.800 C 3.159 62.800,62.800 3.154,62.800 1.403 C 62.800 0.409,60.357 0.672,58.517 1.865 M74.193 1.851 C 71.933 3.342,3.220 72.059,1.895 74.153 C 0.508 76.345,0.406 78.400,1.683 78.400 C 2.940 78.400,78.400 2.940,78.400 1.683 C 78.400 0.409,76.247 0.495,74.193 1.851 M89.793 1.850 C 87.531 3.341,3.224 87.652,1.897 89.750 C 0.506 91.949,0.405 94.000,1.688 94.000 C 2.954 94.000,94.000 2.954,94.000 1.688 C 94.000 0.410,91.852 0.493,89.793 1.850 M104.861 2.300 C 102.263 4.210,3.716 102.800,2.046 105.160 C 0.488 107.361,0.308 109.600,1.689 109.600 C 2.960 109.600,109.600 2.960,109.600 1.689 C 109.600 0.199,107.319 0.493,104.861 2.300 M120.760 2.050 C 119.792 2.738,102.932 19.343,83.292 38.950 L 47.585 74.600 43.992 74.715 C 42.017 74.778,40.400 75.003,40.400 75.215 C 40.400 75.427,40.117 75.600,39.771 75.600 C 38.194 75.600,37.231 77.867,37.104 81.883 L 37.000 85.166 20.159 102.083 C 2.295 120.027,0.800 121.709,0.800 123.860 C 0.800 126.716,1.863 125.827,19.847 107.926 L 37.200 90.652 37.193 95.626 L 37.187 100.600 20.051 117.800 C 2.800 135.117,0.800 137.381,0.800 139.592 C 0.800 142.334,2.023 141.304,19.764 123.615 L 37.000 106.430 37.113 111.273 L 37.226 116.116 19.870 133.561 C 2.743 150.777,0.800 153.000,0.800 155.384 C 0.800 157.925,2.295 156.651,19.773 139.211 L 37.000 122.022 37.113 126.869 L 37.226 131.716 19.870 149.161 C 2.743 166.377,0.800 168.600,0.800 170.984 C 0.800 173.770,0.811 173.761,20.500 154.098 L 37.200 137.421 37.196 142.410 L 37.193 147.400 20.220 164.449 C 3.424 181.320,0.800 184.297,0.800 186.478 C 0.800 189.473,1.143 189.168,27.330 162.902 C 32.428 157.787,36.735 153.602,36.900 153.602 C 37.065 153.601,37.200 155.716,37.200 158.303 L 37.200 163.006 20.130 180.203 C 3.216 197.243,0.800 199.969,0.800 202.012 C 0.800 204.934,1.648 204.222,20.047 185.835 C 29.203 176.686,36.808 169.200,36.947 169.200 C 37.086 169.200,37.200 171.341,37.200 173.959 L 37.200 178.718 20.144 195.859 C 3.123 212.965,0.800 215.582,0.800 217.655 C 0.800 220.570,1.519 219.968,20.000 201.567 L 37.000 184.641 37.113 189.556 L 37.225 194.472 23.713 207.988 C 0.987 230.720,0.800 230.927,0.800 233.357 C 0.800 236.166,1.710 235.402,20.017 217.224 L 37.000 200.362 37.113 205.240 L 37.226 210.118 24.913 222.424 C 1.573 245.750,0.800 246.597,0.800 248.832 C 0.800 251.844,1.869 250.957,20.105 232.812 L 37.000 216.003 37.113 220.873 L 37.226 225.743 21.313 241.715 C 1.994 261.106,3.003 260.065,1.791 261.852 C 0.785 263.333,0.478 265.354,1.192 265.795 C 2.018 266.305,3.891 264.587,20.300 248.264 L 37.200 231.453 37.196 236.427 L 37.193 241.400 20.021 258.600 C 2.684 275.965,0.800 278.069,0.800 280.056 C 0.800 283.174,1.332 282.732,20.300 263.864 L 37.200 247.053 37.196 252.027 L 37.193 257.000 20.021 274.200 C 2.301 291.949,0.800 293.642,0.800 295.880 C 0.800 298.822,0.820 298.805,21.500 278.227 L 37.200 262.604 37.196 267.602 L 37.193 272.600 20.021 289.800 C 2.301 307.549,0.800 309.242,0.800 311.480 C 0.800 314.422,0.820 314.405,21.500 293.827 L 37.200 278.204 37.196 283.202 L 37.193 288.200 20.060 305.361 C 2.680 322.770,0.800 324.895,0.800 327.142 C 0.800 329.269,1.906 328.676,7.100 323.766 L 12.000 319.134 11.992 324.067 L 11.984 329.000 7.472 333.600 C 2.197 338.978,0.800 340.882,0.800 342.693 C 0.800 345.222,1.701 344.659,8.900 337.641 L 12.000 334.619 11.993 339.609 L 11.986 344.600 7.861 348.800 C 2.384 354.375,0.800 356.491,0.800 358.231 C 0.800 360.890,1.515 360.427,9.746 352.433 C 12.089 350.157,13.767 348.803,13.879 349.100 C 13.982 349.375,14.322 349.600,14.633 349.600 C 14.945 349.600,15.200 349.773,15.200 349.984 C 15.200 350.195,16.628 350.420,18.374 350.484 L 21.549 350.600 12.444 359.800 C 2.311 370.040,0.800 371.864,0.800 373.860 C 0.800 376.596,1.970 375.682,14.975 362.787 L 27.493 350.375 32.328 350.487 L 37.162 350.600 20.039 367.800 C 2.797 385.120,0.800 387.382,0.800 389.592 C 0.800 392.381,1.957 391.381,22.769 370.605 L 43.000 350.409 47.999 350.405 L 52.997 350.400 30.774 372.700 C 2.699 400.871,3.469 400.000,6.636 400.000 C 8.887 400.000,9.638 399.312,34.876 374.103 L 58.600 350.405 63.599 350.403 L 68.597 350.400 46.374 372.700 C 18.268 400.902,19.065 400.000,22.262 400.000 C 24.687 400.000,22.423 402.087,51.811 372.748 L 74.222 350.374 79.129 350.487 L 84.037 350.600 62.424 372.200 C 35.082 399.526,34.663 400.000,37.862 400.000 C 40.286 400.000,38.024 402.083,67.312 372.887 L 89.895 350.375 94.798 350.487 L 99.700 350.600 78.137 372.200 C 49.581 400.804,50.292 400.000,53.545 400.000 C 55.944 400.000,54.931 400.940,85.808 370.087 L 105.537 350.375 110.464 350.487 L 115.391 350.600 93.596 372.459 C 64.183 401.956,65.920 400.000,69.142 400.000 C 71.555 400.000,70.642 400.843,100.657 370.900 L 121.207 350.400 126.003 350.400 C 128.642 350.400,130.800 350.523,130.800 350.673 C 130.800 350.824,123.105 358.634,113.700 368.031 C 80.662 401.038,81.602 400.000,84.737 400.000 C 87.103 400.000,87.934 399.241,113.671 373.587 L 136.934 350.400 141.667 350.400 C 144.270 350.400,146.397 350.535,146.393 350.700 C 146.389 350.865,135.867 361.513,123.010 374.363 C 98.790 398.570,97.528 400.000,100.385 400.000 C 102.734 400.000,103.999 398.846,129.392 373.525 L 152.584 350.400 157.587 350.400 L 162.590 350.400 139.528 373.500 C 112.522 400.551,115.298 397.690,114.811 398.970 C 114.432 399.967,114.469 400.000,115.974 400.000 C 118.359 400.000,119.696 398.782,145.024 373.529 L 168.248 350.374 173.113 350.487 L 177.978 350.600 154.246 374.400 C 130.019 398.695,128.864 400.000,131.577 400.000 C 133.975 400.000,135.153 398.928,160.230 373.930 L 183.859 350.374 188.713 350.487 L 193.567 350.600 169.844 374.400 C 145.609 398.715,144.471 400.000,147.177 400.000 C 149.575 400.000,150.753 398.928,175.830 373.930 L 199.459 350.374 204.313 350.487 L 209.167 350.600 185.444 374.400 C 161.192 398.732,160.069 400.000,162.787 400.000 C 165.211 400.000,166.838 398.520,191.680 373.703 L 215.000 350.406 219.967 350.403 C 222.698 350.401,224.858 350.478,224.767 350.573 C 224.675 350.669,213.963 361.424,200.961 374.473 C 176.959 398.564,175.685 400.000,178.296 400.000 C 180.791 400.000,182.621 398.343,206.857 374.128 L 230.600 350.405 235.575 350.403 L 240.550 350.400 216.740 374.300 C 192.552 398.580,191.290 400.000,193.896 400.000 C 196.391 400.000,198.221 398.343,222.457 374.128 L 246.200 350.405 251.175 350.403 L 256.150 350.400 232.275 374.352 C 207.748 398.957,206.828 400.000,209.658 400.000 C 211.967 400.000,214.180 397.984,238.057 374.128 L 261.800 350.405 266.775 350.403 L 271.750 350.400 247.875 374.352 C 223.062 399.244,222.401 400.000,225.436 400.000 C 227.687 400.000,228.438 399.312,253.676 374.103 L 277.400 350.405 282.375 350.403 L 287.350 350.400 263.475 374.352 C 238.662 399.244,238.001 400.000,241.036 400.000 C 243.287 400.000,244.038 399.312,269.276 374.103 L 293.000 350.405 297.999 350.403 L 302.997 350.400 280.774 372.700 C 252.699 400.871,253.469 400.000,256.636 400.000 C 258.887 400.000,259.638 399.312,284.876 374.103 L 308.600 350.405 313.599 350.403 L 318.597 350.400 296.374 372.700 C 268.268 400.902,269.065 400.000,272.262 400.000 C 274.687 400.000,272.423 402.087,301.811 372.748 L 324.222 350.374 329.129 350.487 L 334.037 350.600 312.424 372.200 C 285.082 399.526,284.663 400.000,287.862 400.000 C 290.286 400.000,288.024 402.083,317.312 372.887 L 339.895 350.375 344.798 350.487 L 349.700 350.600 328.137 372.200 C 299.581 400.804,300.292 400.000,303.545 400.000 C 305.944 400.000,304.931 400.940,335.808 370.087 L 355.537 350.375 360.464 350.487 L 365.391 350.600 343.596 372.459 C 314.183 401.956,315.920 400.000,319.142 400.000 C 321.555 400.000,320.642 400.843,350.657 370.900 L 371.207 350.400 374.803 350.400 C 376.934 350.400,378.400 350.237,378.400 350.000 C 378.400 349.780,378.683 349.600,379.029 349.600 C 379.837 349.600,380.800 348.637,380.800 347.829 C 380.800 347.483,380.980 347.200,381.200 347.200 C 381.436 347.200,381.600 345.758,381.600 343.674 L 381.600 340.148 386.652 334.974 C 399.876 321.430,400.000 321.282,400.000 319.142 C 400.000 317.069,399.023 317.281,396.300 319.943 C 395.255 320.964,391.565 324.557,388.100 327.927 L 381.800 334.055 381.687 329.176 L 381.575 324.297 385.687 320.229 C 397.708 308.341,400.000 305.670,400.000 303.545 C 400.000 300.684,399.837 300.803,388.000 312.309 L 381.800 318.335 381.677 316.768 C 381.609 315.905,381.384 315.200,381.177 315.200 C 380.970 315.200,380.800 314.996,380.800 314.747 C 380.800 314.244,379.271 312.800,378.739 312.800 C 377.686 312.800,378.989 311.182,384.100 306.142 C 397.521 292.907,400.000 290.057,400.000 287.862 C 400.000 284.884,398.511 286.086,383.231 301.404 L 372.662 312.000 367.631 312.000 L 362.600 312.000 378.862 295.700 C 401.122 273.388,400.000 274.632,400.000 272.262 C 400.000 269.096,398.601 270.315,374.402 294.565 L 357.003 312.000 352.002 311.992 L 347.000 311.983 352.059 306.992 C 355.304 303.790,357.420 302.000,357.959 302.000 C 358.422 302.000,358.800 301.820,358.800 301.600 C 358.800 301.380,359.160 301.200,359.600 301.200 C 360.040 301.200,360.400 301.020,360.400 300.800 C 360.400 300.580,360.940 300.400,361.600 300.400 C 362.260 300.400,362.800 300.220,362.800 300.000 C 362.800 299.780,363.160 299.600,363.600 299.600 C 364.040 299.600,364.400 299.420,364.400 299.200 C 364.400 298.980,364.805 298.800,365.300 298.800 C 366.396 298.799,368.400 297.153,368.400 296.253 C 368.400 295.894,368.580 295.600,368.800 295.600 C 369.030 295.600,369.202 294.364,369.204 292.700 L 369.208 289.800 383.504 275.469 C 399.077 259.859,400.000 258.805,400.000 256.636 C 400.000 253.623,398.069 255.240,379.837 273.530 C 367.682 285.724,366.800 286.422,366.800 283.852 C 366.800 283.519,366.620 283.136,366.400 283.000 C 366.180 282.864,366.000 282.328,366.000 281.810 C 366.000 281.291,365.833 280.807,365.628 280.733 C 363.635 280.019,364.657 278.804,381.628 261.730 C 399.586 243.662,400.000 243.196,400.000 241.038 C 400.000 238.096,399.056 238.885,380.568 257.268 C 367.502 270.260,362.800 274.706,362.800 274.068 C 362.800 273.590,362.620 273.200,362.400 273.200 C 362.180 273.200,362.000 272.761,362.000 272.224 C 362.000 271.687,361.820 271.136,361.600 271.000 C 361.380 270.864,361.200 270.403,361.200 269.976 C 361.200 269.549,361.008 269.200,360.773 269.200 C 358.938 269.200,361.624 266.192,379.430 248.310 C 399.660 227.994,400.000 227.615,400.000 225.438 C 400.000 222.460,399.112 223.215,378.632 243.600 C 359.100 263.042,358.400 263.702,358.400 262.661 C 358.400 262.365,358.150 261.600,357.844 260.961 C 356.328 257.797,355.935 256.797,356.062 256.425 C 356.138 256.202,365.579 246.610,377.043 235.110 C 398.532 213.552,400.000 211.927,400.000 209.707 C 400.000 206.847,398.985 207.729,376.386 230.243 C 355.204 251.345,353.600 252.776,353.600 250.576 C 353.600 250.039,353.420 249.600,353.200 249.600 C 352.980 249.600,352.800 249.328,352.800 248.995 C 352.800 248.662,352.592 247.987,352.338 247.495 C 352.083 247.003,351.741 246.316,351.577 245.969 C 351.352 245.492,356.977 239.633,374.565 222.024 C 398.347 198.216,400.000 196.388,400.000 193.896 C 400.000 191.288,398.576 192.555,373.999 217.042 C 349.928 241.024,349.795 241.148,349.299 240.097 C 349.024 239.516,348.800 238.806,348.800 238.520 C 348.800 238.234,348.620 238.000,348.400 238.000 C 348.180 238.000,348.000 237.586,348.000 237.080 C 348.000 236.574,347.805 235.965,347.566 235.726 C 346.518 234.678,348.558 232.447,372.644 208.304 C 398.909 181.977,400.000 180.782,400.000 178.345 C 400.000 175.662,398.633 176.888,371.885 203.560 C 344.558 230.809,344.800 230.580,344.800 229.257 C 344.800 228.812,344.620 228.336,344.400 228.200 C 344.180 228.064,344.000 227.603,344.000 227.176 C 344.000 226.749,343.820 226.400,343.600 226.400 C 343.380 226.400,343.200 225.961,343.200 225.424 C 343.200 224.887,343.010 224.330,342.778 224.186 C 341.872 223.627,343.438 221.969,369.851 195.504 C 399.014 166.284,400.000 165.215,400.000 162.807 C 400.000 160.042,398.748 161.172,369.675 190.159 C 353.986 205.802,341.075 218.671,340.984 218.757 C 340.893 218.844,340.708 218.574,340.573 218.157 C 340.164 216.897,338.831 213.640,338.318 212.649 C 337.983 212.001,342.027 207.791,367.711 182.049 C 384.090 165.632,398.056 151.408,398.746 150.440 C 400.349 148.190,400.556 145.539,399.100 145.895 C 398.605 146.017,384.353 159.931,367.429 176.815 C 344.375 199.815,336.543 207.400,336.202 207.057 C 335.951 206.806,335.494 205.745,335.186 204.700 C 334.877 203.655,334.506 202.800,334.359 202.800 C 334.213 202.800,333.995 202.305,333.875 201.700 C 333.673 200.685,336.118 198.132,365.575 168.600 C 383.130 151.000,398.057 135.808,398.747 134.840 C 400.349 132.590,400.555 129.941,399.100 130.292 C 398.605 130.411,383.391 145.289,365.292 163.354 C 328.507 200.069,331.971 196.836,331.272 195.101 C 330.983 194.385,330.579 193.487,330.374 193.105 C 330.168 192.723,330.000 192.138,330.000 191.805 C 330.000 191.472,329.820 191.200,329.600 191.200 C 327.606 191.200,330.476 188.137,362.945 155.608 C 399.055 119.429,400.000 118.419,400.000 115.974 C 400.000 114.469,399.967 114.432,398.970 114.811 C 397.678 115.303,402.286 110.790,362.275 150.749 C 342.115 170.881,327.497 185.183,327.240 185.025 C 326.998 184.875,326.800 184.403,326.800 183.976 C 326.800 183.549,326.620 183.200,326.400 183.200 C 326.180 183.200,326.000 182.750,326.000 182.200 C 326.000 181.650,325.843 181.200,325.651 181.200 C 325.459 181.200,325.192 180.511,325.058 179.670 L 324.813 178.140 360.739 142.170 C 399.234 103.629,400.000 102.813,400.000 100.363 L 400.000 98.798 398.780 99.299 C 398.079 99.587,381.719 115.636,360.360 136.991 C 322.630 174.711,322.429 174.898,322.406 172.300 C 322.403 171.915,322.220 171.600,322.000 171.600 C 321.780 171.600,321.600 171.251,321.600 170.824 C 321.600 170.397,321.420 169.936,321.200 169.800 C 320.980 169.664,320.800 169.128,320.800 168.610 C 320.800 168.091,320.601 167.600,320.358 167.519 C 320.114 167.438,337.175 150.098,358.271 128.986 C 399.551 87.673,400.000 87.197,400.000 84.737 C 400.000 81.488,403.781 77.944,351.961 129.772 C 316.484 165.254,317.676 164.181,317.613 160.700 C 317.606 160.315,317.420 160.000,317.200 160.000 C 316.980 160.000,316.800 159.561,316.800 159.024 C 316.800 158.487,316.620 157.936,316.400 157.800 C 314.830 156.830,315.722 155.875,353.700 117.851 C 403.076 68.416,400.000 71.652,400.000 69.142 C 400.000 65.804,404.714 61.408,354.150 111.900 C 311.106 154.882,313.600 152.477,313.600 151.000 C 313.600 150.450,313.420 150.000,313.200 150.000 C 312.980 150.000,312.800 149.550,312.800 149.000 C 312.800 148.450,312.620 148.000,312.400 148.000 C 312.180 148.000,312.000 147.550,312.000 147.000 C 312.000 146.450,311.820 146.000,311.600 146.000 C 310.112 146.000,315.365 140.516,350.500 105.382 C 403.565 52.319,400.000 56.052,400.000 53.545 C 400.000 50.155,403.275 47.097,351.715 98.616 C 328.569 121.744,309.470 140.561,309.273 140.433 C 309.076 140.305,308.787 139.503,308.630 138.651 C 308.474 137.799,308.199 136.809,308.019 136.451 C 307.840 136.093,307.459 135.300,307.174 134.690 L 306.654 133.580 350.896 89.290 C 405.409 34.718,400.000 40.383,400.000 37.862 C 400.000 34.497,401.648 32.955,349.631 84.995 C 318.440 116.200,305.325 129.070,304.997 128.797 C 304.741 128.585,304.285 127.644,303.983 126.706 C 303.681 125.768,303.314 124.910,303.167 124.800 C 301.150 123.287,299.258 125.326,346.213 78.400 C 403.860 20.787,400.000 24.816,400.000 22.262 C 400.000 18.924,403.934 15.230,347.700 71.374 C 312.394 106.624,300.400 118.371,300.400 117.699 C 300.400 117.205,300.220 116.800,300.000 116.800 C 299.780 116.800,299.600 116.451,299.600 116.024 C 299.600 115.597,299.420 115.136,299.200 115.000 C 298.980 114.864,298.800 114.313,298.800 113.776 C 298.800 113.239,298.608 112.800,298.373 112.800 C 296.367 112.800,300.101 108.898,348.238 60.701 C 400.815 8.058,400.000 8.910,400.000 6.638 C 400.000 3.238,401.477 1.847,343.837 59.529 C 292.984 110.419,295.382 108.168,293.988 106.318 C 293.871 106.164,292.388 105.984,290.691 105.918 L 287.607 105.800 339.204 54.188 C 392.261 1.114,392.557 0.800,389.592 0.800 C 387.218 0.800,384.344 3.548,331.514 56.346 C 295.059 92.779,277.641 109.922,276.814 110.183 C 276.146 110.393,275.600 110.708,275.600 110.883 C 275.600 111.057,275.161 111.200,274.624 111.200 C 274.087 111.200,273.536 111.380,273.400 111.600 C 273.264 111.820,272.803 112.000,272.376 112.000 C 271.949 112.000,271.600 112.180,271.600 112.400 C 271.600 112.620,271.161 112.800,270.624 112.800 C 270.087 112.800,269.536 112.980,269.400 113.200 C 269.264 113.420,268.803 113.600,268.376 113.600 C 267.949 113.600,267.600 113.780,267.600 114.000 C 267.600 114.220,267.161 114.400,266.624 114.400 C 266.087 114.400,265.536 114.580,265.400 114.800 C 265.264 115.020,264.803 115.200,264.376 115.200 C 263.949 115.200,263.600 115.380,263.600 115.600 C 263.600 115.820,263.199 116.000,262.709 116.000 C 262.049 116.000,276.568 101.242,318.509 59.283 C 377.166 0.599,376.976 0.800,373.860 0.800 C 371.541 0.800,370.363 1.933,310.300 61.947 C 268.242 103.971,251.316 120.636,250.600 120.727 C 250.050 120.796,249.600 121.021,249.600 121.227 C 249.600 121.432,249.240 121.600,248.800 121.600 C 248.360 121.600,248.000 121.780,248.000 122.000 C 248.000 122.220,247.561 122.400,247.024 122.400 C 246.487 122.400,245.936 122.580,245.800 122.800 C 245.664 123.020,245.203 123.200,244.776 123.200 C 244.349 123.200,244.000 123.380,244.000 123.600 C 244.000 123.820,243.550 124.000,243.000 124.000 C 242.450 124.000,242.000 124.180,242.000 124.400 C 242.000 124.620,241.640 124.800,241.200 124.800 C 240.760 124.800,240.400 124.980,240.400 125.200 C 240.400 125.420,239.847 125.600,239.172 125.600 C 238.170 125.600,237.968 125.454,238.072 124.803 C 238.142 124.365,265.515 96.682,298.900 63.285 C 361.709 0.453,361.380 0.800,358.251 0.800 C 355.893 0.800,354.126 2.499,294.748 61.863 C 233.145 123.450,236.183 120.569,234.788 118.718 C 234.671 118.564,233.189 118.384,231.495 118.318 L 228.414 118.200 286.207 60.381 C 345.719 0.842,345.759 0.800,342.742 0.800 C 340.324 0.800,337.635 3.380,280.315 60.691 L 222.600 118.398 217.611 118.399 L 212.622 118.400 270.511 60.478 C 330.090 0.865,330.152 0.800,327.142 0.800 C 324.724 0.800,322.035 3.380,264.715 60.691 L 207.000 118.398 202.001 118.399 L 197.001 118.400 253.226 62.100 C 319.206 -3.968,314.675 0.800,311.480 0.800 C 309.084 0.800,307.362 2.454,249.152 60.655 L 191.400 118.398 186.401 118.399 L 181.401 118.400 237.626 62.100 C 303.399 -3.761,299.057 0.800,295.980 0.800 C 293.573 0.800,291.451 2.835,234.094 60.143 C 202.136 92.075,175.811 118.260,175.594 118.333 C 175.350 118.416,175.200 116.668,175.200 113.743 L 175.200 109.018 227.952 56.209 C 285.193 -1.094,283.411 0.800,280.056 0.800 C 277.928 0.800,275.243 3.374,225.555 53.051 L 175.400 103.194 175.287 98.321 L 175.174 93.447 220.138 48.424 C 244.867 23.661,265.312 2.991,265.569 2.492 C 266.555 0.578,264.273 0.147,261.852 1.791 C 259.971 3.067,263.847 -0.757,216.441 46.591 L 175.200 87.781 175.200 82.766 L 175.200 77.750 210.006 42.975 C 252.629 0.390,251.881 1.194,249.127 0.876 C 246.623 0.587,248.279 -0.973,203.660 43.695 L 172.600 74.789 167.700 74.795 C 165.005 74.798,162.800 74.738,162.800 74.663 C 162.800 74.587,178.830 58.467,198.422 38.839 C 235.944 1.248,236.355 0.800,233.357 0.800 C 230.769 0.800,233.472 -1.754,189.214 42.500 L 156.911 74.800 152.056 74.800 C 149.385 74.800,147.200 74.718,147.200 74.618 C 147.200 74.518,163.239 58.371,182.843 38.737 C 220.791 0.729,220.726 0.800,217.655 0.800 C 215.443 0.800,212.344 3.714,177.095 38.929 L 141.189 74.800 136.157 74.800 L 131.125 74.800 166.799 39.100 C 200.001 5.875,203.988 1.721,203.317 1.051 C 201.420 -0.847,199.389 0.989,161.334 38.998 L 125.489 74.800 120.476 74.800 L 115.462 74.800 151.155 39.085 C 170.786 19.442,187.014 3.107,187.217 2.785 C 188.624 0.561,186.406 0.137,183.378 2.051 C 182.261 2.757,165.828 18.853,145.604 39.051 L 109.808 74.800 104.807 74.800 L 99.805 74.800 135.294 39.300 C 175.955 -1.374,173.939 0.800,170.984 0.800 C 168.427 0.800,166.487 2.609,130.372 38.661 L 94.144 74.826 89.277 74.713 L 84.410 74.600 120.405 38.587 C 156.976 1.997,158.084 0.800,155.384 0.800 C 152.827 0.800,150.887 2.609,114.772 38.661 L 78.544 74.826 73.679 74.713 L 68.814 74.600 104.807 38.582 C 141.814 1.550,142.505 0.800,139.592 0.800 C 137.259 0.800,134.706 3.192,99.090 38.749 L 63.179 74.600 58.090 74.713 L 53.001 74.825 89.101 38.686 C 114.912 12.846,125.200 2.298,125.200 1.673 C 125.200 0.306,122.946 0.498,120.760 2.050 M99.901 162.500 L 99.800 237.400 75.000 237.400 L 50.200 237.400 50.097 163.000 C 50.041 122.080,50.080 88.375,50.185 88.100 C 50.334 87.707,55.706 87.600,75.188 87.600 L 100.002 87.600 99.901 162.500 M162.400 162.400 L 162.400 237.200 137.600 237.200 L 112.800 237.200 112.800 162.400 L 112.800 87.600 137.600 87.600 L 162.400 87.600 162.400 162.400 M66.103 94.175 C 61.355 96.801,61.087 102.470,65.569 105.490 C 67.547 106.824,82.014 106.894,84.346 105.581 C 88.688 103.138,88.732 97.408,84.431 94.510 C 82.831 93.431,67.939 93.159,66.103 94.175 M128.503 94.175 C 123.611 96.880,123.599 103.298,128.480 105.838 C 130.228 106.747,145.382 106.586,147.000 105.641 C 151.386 103.079,151.100 96.775,146.475 94.100 C 145.273 93.404,129.779 93.469,128.503 94.175 M71.696 119.598 C 68.560 121.510,68.803 117.372,68.803 168.800 C 68.803 213.797,68.817 214.623,69.598 215.904 C 72.236 220.231,79.569 219.547,81.000 214.840 C 81.793 212.233,81.322 122.754,80.509 121.657 C 78.411 118.824,74.474 117.904,71.696 119.598 M134.096 119.598 C 130.960 121.510,131.203 117.372,131.203 168.800 C 131.203 213.797,131.217 214.623,131.998 215.904 C 134.506 220.018,140.780 219.821,143.179 215.552 C 144.478 213.240,144.469 124.175,143.169 122.042 C 141.147 118.725,137.250 117.675,134.096 119.598 M287.735 122.100 C 288.049 122.815,288.688 124.253,289.153 125.296 C 289.619 126.338,290.000 127.339,290.000 127.521 C 290.000 127.702,290.360 128.595,290.800 129.506 C 291.240 130.416,291.600 131.352,291.600 131.586 C 291.600 131.820,291.784 132.323,292.009 132.705 C 292.885 134.193,296.319 143.346,296.156 143.761 C 295.802 144.668,250.311 162.486,249.791 161.921 C 248.481 160.500,240.644 139.584,241.222 139.050 C 241.540 138.755,246.030 136.852,251.200 134.821 C 256.370 132.789,260.960 130.959,261.400 130.754 C 264.015 129.537,285.918 120.884,286.481 120.846 C 286.890 120.818,287.391 121.320,287.735 122.100 M225.000 143.800 L 225.000 156.200 200.000 156.200 L 175.000 156.200 174.894 144.204 C 174.836 137.607,174.875 131.980,174.983 131.701 C 175.137 131.297,180.259 131.215,200.089 131.297 L 225.000 131.400 225.000 143.800 M304.742 165.300 C 308.967 175.879,308.835 175.556,309.960 178.096 C 310.422 179.138,310.800 180.176,310.800 180.401 C 310.800 180.626,310.959 181.123,311.153 181.505 C 311.348 181.887,311.684 182.650,311.900 183.200 C 312.116 183.750,312.497 184.695,312.746 185.300 C 312.996 185.905,313.380 186.850,313.600 187.400 C 313.820 187.950,314.180 188.850,314.400 189.400 C 314.620 189.950,314.962 190.805,315.160 191.300 C 315.358 191.795,315.898 193.053,316.360 194.096 C 316.822 195.138,317.200 196.176,317.200 196.401 C 317.200 196.626,317.382 197.123,317.604 197.505 C 317.939 198.083,338.825 250.231,341.272 256.600 C 341.695 257.700,342.391 259.363,342.820 260.296 C 343.249 261.228,343.600 262.176,343.600 262.401 C 343.600 262.626,343.765 263.123,343.967 263.505 C 344.729 264.945,346.000 268.007,346.000 268.401 C 346.000 268.626,346.165 269.123,346.367 269.505 C 347.129 270.945,348.400 274.007,348.400 274.401 C 348.400 274.626,348.559 275.123,348.753 275.505 C 349.102 276.191,349.728 277.652,350.507 279.600 C 351.112 281.113,351.448 281.933,352.794 285.175 C 354.365 288.961,354.553 288.690,348.745 290.980 C 346.025 292.052,343.629 293.080,343.420 293.264 C 343.211 293.449,342.804 293.600,342.516 293.600 C 342.227 293.600,341.138 293.978,340.096 294.440 C 339.053 294.902,337.840 295.418,337.400 295.586 C 336.960 295.755,336.060 296.121,335.400 296.400 C 334.740 296.679,333.750 297.087,333.200 297.307 C 332.650 297.527,331.750 297.887,331.200 298.107 C 330.650 298.327,329.750 298.684,329.200 298.900 C 328.650 299.116,327.887 299.452,327.505 299.647 C 327.123 299.841,326.626 300.000,326.401 300.000 C 326.176 300.000,325.228 300.341,324.296 300.757 C 311.382 306.520,307.271 307.612,307.213 305.295 C 307.206 305.017,307.041 304.477,306.847 304.095 C 306.652 303.713,306.292 302.905,306.047 302.300 C 305.801 301.695,305.396 300.705,305.146 300.100 C 304.897 299.495,304.561 298.640,304.400 298.200 C 304.239 297.760,303.903 296.905,303.654 296.300 C 303.404 295.695,302.996 294.705,302.746 294.100 C 302.497 293.495,302.161 292.640,302.000 292.200 C 301.839 291.760,301.479 290.860,301.200 290.200 C 300.921 289.540,300.543 288.640,300.360 288.200 C 300.177 287.760,294.621 273.810,288.014 257.200 C 281.406 240.590,275.820 226.687,275.600 226.305 C 275.380 225.923,275.200 225.426,275.200 225.201 C 275.200 224.976,274.822 223.938,274.360 222.896 C 273.440 220.818,272.877 219.478,272.346 218.100 C 272.156 217.605,271.820 216.750,271.600 216.200 C 271.380 215.650,271.020 214.750,270.800 214.200 C 269.821 211.753,269.484 210.955,269.153 210.305 C 268.959 209.923,268.800 209.426,268.800 209.201 C 268.800 208.976,268.461 208.028,268.047 207.096 C 267.633 206.163,267.062 204.770,266.776 204.000 C 266.491 203.230,265.866 201.700,265.388 200.600 C 264.909 199.500,262.671 193.920,260.415 188.200 C 258.160 182.480,256.077 177.260,255.788 176.600 C 255.499 175.940,255.203 175.153,255.131 174.852 C 255.000 174.305,256.948 172.885,257.904 172.829 C 258.182 172.813,259.172 172.461,260.104 172.046 C 261.037 171.631,262.880 170.883,264.200 170.384 C 265.520 169.884,266.771 169.323,266.980 169.138 C 267.189 168.952,267.596 168.800,267.884 168.800 C 268.173 168.800,269.172 168.461,270.104 168.046 C 271.037 167.632,277.110 165.180,283.600 162.597 C 290.090 160.014,296.019 157.629,296.776 157.296 C 298.254 156.645,299.944 156.090,300.614 156.034 C 300.842 156.015,302.699 160.185,304.742 165.300 M224.800 221.800 L 224.800 274.800 200.000 274.800 L 175.200 274.800 175.200 221.800 L 175.200 168.800 200.000 168.800 L 224.800 168.800 224.800 221.800 M239.229 171.600 C 239.433 171.600,239.600 171.949,239.600 172.376 C 239.600 172.803,239.780 173.264,240.000 173.400 C 240.220 173.536,240.400 173.982,240.400 174.390 C 240.400 174.799,240.552 175.193,240.738 175.267 C 241.947 175.743,241.522 177.510,239.789 179.210 L 238.000 180.967 238.000 175.950 C 238.000 171.528,238.353 169.114,238.729 170.964 C 238.800 171.314,239.025 171.600,239.229 171.600 M282.093 176.467 C 278.542 178.190,277.542 182.193,279.563 186.600 C 280.450 188.535,280.815 189.400,281.546 191.300 C 281.737 191.795,282.078 192.650,282.305 193.200 C 282.532 193.750,285.187 200.410,288.206 208.000 C 291.226 215.590,293.930 222.340,294.215 223.000 C 294.501 223.660,295.039 225.010,295.411 226.000 C 295.783 226.990,296.322 228.340,296.609 229.000 C 296.895 229.660,298.850 234.503,300.953 239.761 C 304.738 249.229,305.584 250.747,307.680 251.838 C 311.947 254.058,317.683 249.583,316.553 244.915 C 316.356 244.104,295.521 191.462,292.839 185.000 C 291.732 182.332,291.472 181.731,291.153 181.105 C 290.959 180.723,290.800 180.165,290.800 179.865 C 290.800 177.077,285.279 174.923,282.093 176.467 M197.558 181.732 C 195.991 182.436,195.221 183.190,194.371 184.857 C 193.343 186.873,193.149 256.026,194.165 258.451 C 196.211 263.334,202.979 263.778,205.553 259.198 C 206.573 257.384,206.922 187.665,205.924 185.319 C 204.496 181.966,200.682 180.331,197.558 181.732 M243.800 183.200 C 243.949 184.080,244.234 184.800,244.435 184.800 C 244.636 184.800,244.800 185.239,244.800 185.776 C 244.800 186.313,244.958 186.851,245.152 186.970 C 246.434 187.762,245.827 188.872,242.060 192.628 L 238.200 196.477 238.087 191.596 L 237.975 186.716 240.472 184.158 C 243.414 181.143,243.451 181.133,243.800 183.200 M248.000 194.000 C 248.000 194.440,248.180 194.800,248.400 194.800 C 248.620 194.800,248.800 195.149,248.800 195.576 C 248.800 196.003,248.980 196.464,249.200 196.600 C 249.420 196.736,249.600 197.287,249.600 197.824 C 249.600 198.361,249.780 198.800,250.000 198.800 C 250.220 198.800,250.397 199.025,250.394 199.300 C 250.388 199.818,238.764 212.000,238.276 212.000 C 238.124 212.000,238.000 209.823,238.000 207.162 L 238.000 202.325 242.471 197.762 C 246.930 193.213,248.000 192.485,248.000 194.000 M252.642 205.100 C 252.761 205.485,253.025 206.113,253.229 206.495 C 253.433 206.877,253.600 207.462,253.600 207.795 C 253.600 208.128,253.780 208.400,254.000 208.400 C 254.220 208.400,254.400 208.835,254.400 209.367 C 254.400 209.898,254.588 210.396,254.817 210.472 C 255.236 210.612,238.846 227.600,238.294 227.600 C 238.132 227.600,238.000 225.403,238.000 222.718 L 238.000 217.836 244.700 211.136 C 251.411 204.425,252.238 203.796,252.642 205.100 M257.600 217.646 C 257.600 218.061,257.780 218.400,258.000 218.400 C 258.220 218.400,258.400 218.749,258.400 219.176 C 258.400 219.603,258.580 220.064,258.800 220.200 C 260.296 221.124,259.195 222.519,248.600 233.131 L 238.000 243.748 238.000 238.598 L 238.000 233.449 247.300 224.224 C 257.216 214.389,257.600 214.144,257.600 217.646 M261.683 228.000 C 261.916 228.550,262.284 229.450,262.500 230.000 C 262.716 230.550,263.052 231.313,263.247 231.695 C 264.015 233.206,263.158 234.231,250.795 246.585 L 238.000 259.370 238.000 254.302 L 238.000 249.234 249.500 237.717 C 255.825 231.383,261.058 226.380,261.129 226.600 C 261.200 226.820,261.449 227.450,261.683 228.000 M266.000 238.824 C 266.000 239.251,266.180 239.600,266.400 239.600 C 266.620 239.600,266.800 240.050,266.800 240.600 C 266.800 241.150,266.980 241.600,267.200 241.600 C 267.420 241.600,267.600 241.872,267.600 242.205 C 267.600 242.538,267.822 243.167,268.094 243.602 C 268.546 244.326,267.279 245.704,253.294 259.694 L 238.000 274.995 238.000 269.966 L 238.000 264.938 251.659 251.281 C 264.793 238.150,266.000 237.101,266.000 238.824 M270.800 250.548 C 270.800 250.881,270.980 251.264,271.200 251.400 C 271.420 251.536,271.600 252.072,271.600 252.590 C 271.600 253.109,271.752 253.593,271.938 253.667 C 274.001 254.480,273.324 255.279,255.386 273.214 L 238.000 290.597 238.000 285.600 L 238.000 280.604 253.863 264.737 C 270.034 248.563,270.800 247.921,270.800 250.548 M99.910 256.300 L 99.800 262.600 75.000 262.600 L 50.200 262.600 50.090 256.300 L 49.980 250.000 75.000 250.000 L 100.020 250.000 99.910 256.300 M162.510 256.156 C 162.461 259.432,162.311 262.222,162.177 262.356 C 161.852 262.682,119.904 262.873,115.700 262.568 L 112.400 262.328 112.400 256.161 L 112.400 249.994 137.500 250.097 L 162.600 250.200 162.510 256.156 M275.228 261.200 C 275.433 261.200,275.600 261.549,275.600 261.976 C 275.600 262.403,275.780 262.864,276.000 263.000 C 276.220 263.136,276.400 263.687,276.400 264.224 C 276.400 264.761,276.580 265.200,276.800 265.200 C 278.730 265.200,276.345 267.858,257.600 286.600 L 238.000 306.197 238.000 301.200 L 238.000 296.203 256.300 277.894 C 270.455 263.733,274.629 259.768,274.728 260.393 C 274.798 260.837,275.023 261.200,275.228 261.200 M279.200 271.788 C 279.200 272.111,279.560 273.017,280.000 273.800 C 280.440 274.583,280.800 275.579,280.800 276.012 C 280.800 276.445,280.980 276.800,281.200 276.800 C 282.676 276.800,279.735 280.062,264.702 295.098 L 247.804 312.000 242.803 312.000 L 237.803 312.000 258.200 291.600 C 278.392 271.405,279.200 270.643,279.200 271.788 M100.000 293.800 L 100.000 312.400 75.000 312.400 L 50.000 312.400 50.000 293.800 L 50.000 275.200 75.000 275.200 L 100.000 275.200 100.000 293.800 M162.400 293.800 L 162.400 312.400 137.600 312.400 L 112.800 312.400 112.800 293.800 L 112.800 275.200 137.600 275.200 L 162.400 275.200 162.400 293.800 M283.927 283.731 C 283.996 284.319,284.221 284.800,284.427 284.800 C 284.632 284.800,284.800 285.149,284.800 285.576 C 284.800 286.003,284.980 286.464,285.200 286.600 C 285.420 286.736,285.600 287.287,285.600 287.824 C 285.600 288.361,285.824 288.800,286.097 288.800 C 286.371 288.800,281.377 294.020,275.000 300.400 L 263.405 312.000 258.405 312.000 L 253.404 312.000 268.201 297.199 C 283.103 282.293,283.696 281.785,283.927 283.731 M225.106 300.100 L 225.000 312.600 200.000 312.600 L 175.000 312.600 174.894 300.100 L 174.789 287.600 200.000 287.600 L 225.211 287.600 225.106 300.100 M288.787 295.500 C 288.794 295.995,288.980 296.400,289.200 296.400 C 289.420 296.400,289.600 296.749,289.600 297.176 C 289.600 297.603,289.780 298.064,290.000 298.200 C 291.385 299.056,290.348 300.642,284.705 306.295 L 279.010 312.000 274.008 312.000 L 269.006 312.000 278.376 302.624 C 288.223 292.770,288.744 292.414,288.787 295.500 M33.120 307.880 L 29.014 312.000 24.010 312.000 L 19.007 312.000 28.003 302.995 L 37.000 293.991 37.113 298.876 L 37.226 303.760 33.120 307.880 M292.800 305.176 C 292.800 305.603,292.964 306.054,293.165 306.178 C 293.366 306.303,293.652 307.122,293.800 308.000 C 293.948 308.878,294.234 309.697,294.435 309.822 C 294.636 309.946,294.800 310.487,294.800 311.024 L 294.800 312.000 289.708 312.000 L 284.616 312.000 288.400 308.200 C 292.374 304.210,292.800 303.917,292.800 305.176 M344.000 309.400 L 341.423 312.000 337.312 312.000 C 334.837 312.000,333.200 311.841,333.200 311.600 C 333.200 311.380,333.740 311.200,334.400 311.200 C 335.060 311.200,335.600 311.020,335.600 310.800 C 335.600 310.580,335.960 310.400,336.400 310.400 C 336.840 310.400,337.200 310.220,337.200 310.000 C 337.200 309.780,337.740 309.600,338.400 309.600 C 339.060 309.600,339.600 309.436,339.600 309.235 C 339.600 309.034,340.319 308.749,341.198 308.600 C 342.077 308.452,342.897 308.166,343.022 307.965 C 343.146 307.764,343.597 307.600,344.024 307.600 C 344.451 307.600,344.800 307.420,344.800 307.200 C 344.800 306.980,345.200 306.800,345.688 306.800 C 346.433 306.800,346.160 307.221,344.000 309.400 M37.200 310.800 C 37.200 311.882,37.075 312.000,35.925 312.000 L 34.650 312.000 35.800 310.800 C 36.432 310.140,37.006 309.600,37.075 309.600 C 37.144 309.600,37.200 310.140,37.200 310.800 M398.600 333.589 C 398.160 333.775,386.280 345.444,372.200 359.521 C 329.276 402.435,331.529 400.000,334.737 400.000 C 337.163 400.000,338.085 399.146,368.616 368.616 C 399.080 338.151,400.000 337.159,400.000 334.764 C 400.000 333.125,399.899 333.040,398.600 333.589 M398.679 349.336 C 397.105 349.987,349.734 397.439,349.239 398.861 C 348.565 400.795,351.289 400.498,354.064 398.336 C 357.012 396.039,397.541 355.392,398.930 353.340 C 400.518 350.993,400.371 348.636,398.679 349.336 M398.875 364.848 C 397.769 365.260,398.855 364.244,387.942 375.078 C 363.598 399.246,362.934 400.000,365.974 400.000 C 367.184 400.000,368.002 399.634,369.664 398.349 C 372.559 396.111,397.532 371.020,398.934 368.940 C 400.398 366.769,400.362 364.293,398.875 364.848 M398.800 380.474 C 397.456 380.974,380.585 397.960,380.300 399.100 C 379.933 400.566,382.596 400.349,384.840 398.730 C 387.207 397.021,397.652 386.509,398.987 384.492 C 400.443 382.291,400.332 379.905,398.800 380.474 M399.000 396.010 C 398.057 396.372,396.222 398.302,395.871 399.300 C 395.508 400.334,398.419 400.284,399.364 399.239 C 400.389 398.108,400.104 395.586,399.000 396.010 " stroke="none" fill="#613c16" fill-rule="evenodd"></path></g></svg>